<?xml version="1.0" standalone="no"?>
<!DOCTYPE svg PUBLIC "-//W3C//DTD SVG 20010904//EN"
 "http://www.w3.org/TR/2001/REC-SVG-20010904/DTD/svg10.dtd">
<svg version="1.0" xmlns="http://www.w3.org/2000/svg"
 width="260.000000pt" height="260.000000pt" viewBox="0 0 260.000000 260.000000"
 preserveAspectRatio="xMidYMid meet">
<metadata>
Created by potrace 1.11, written by Peter Selinger 2001-2013
</metadata>
<g transform="translate(0.000000,260.000000) scale(0.100000,-0.100000)"
fill="#000000" stroke="none">
<path d="M0 1300 l0 -1300 1300 0 1300 0 0 1300 0 1300 -1300 0 -1300 0 0
-1300z m2275 490 c-60 -60 -114 -110 -120 -110 -6 0 -69 58 -140 130 l-130
130 115 115 115 115 135 -135 135 -135 -110 -110z m-455 -5 l34 -36 -427 -427
-427 -427 32 -33 33 -32 427 427 428 428 62 -63 63 -62 -563 -563 -563 -563
-236 -107 c-130 -59 -238 -105 -240 -103 -3 2 43 112 102 243 l106 238 557
558 c306 306 562 557 568 557 5 0 25 -16 44 -35z"/>
<path d="M828 723 c-41 -42 -89 -127 -128 -230 -15 -36 172 56 233 115 51 50
48 60 -14 61 -23 1 -27 6 -35 52 l-9 50 -47 -48z"/>
</g>
</svg>
